<svg width="140" height="54" viewBox="0 0 140 54" fill="none" xmlns="http://www.w3.org/2000/svg">
<path d="M126.961 44.0366C124.859 43.8812 122.59 43.3526 120.79 42.5987C120.382 42.4281 120.094 40.8774 119.889 40.7995L119.468 38.7234C119.413 36.8734 119.343 34.8298 119.313 34.1819L119.258 33.004H120.012H120.766L120.958 34.453C121.674 39.8657 124.533 42.59 129.497 42.59C132.793 42.59 134.837 41.3535 135.866 38.7364C136.187 37.9199 136.236 37.499 136.243 35.5203C136.25 33.2683 136.245 33.2319 135.72 32.1575C134.798 30.272 133.866 29.6468 129.224 27.7984C127.847 27.2501 126.211 26.5451 125.59 26.2317C121.535 24.1886 119.527 21.29 119.535 17.4942C119.545 12.6381 122.249 9.13306 126.963 7.86449C128.603 7.4229 132.601 7.47109 134.312 7.95309C135.916 8.40504 138.038 9.24527 138.263 9.51795C138.359 9.6344 138.469 11.0088 138.518 12.7114C138.566 14.3554 138.631 16.0843 138.664 16.5534L138.723 17.4064H137.959H137.195L136.859 15.6956C136.078 11.7117 134.244 9.6119 131.086 9.08553C128.53 8.65946 125.432 9.6461 124.212 11.2748C123.285 12.5129 123.005 13.4827 123.005 15.4567C123.005 17.0262 123.043 17.2389 123.485 18.1147C124.058 19.2525 124.872 19.9967 126.397 20.7757C127.465 21.3214 131.073 22.7681 131.365 22.7681C131.649 22.7681 134.89 24.3836 135.727 24.9427C138.057 26.4981 139.354 28.5852 139.816 31.5211C140.042 32.9561 140.053 33.4346 139.886 34.7643C139.509 37.777 138.631 39.6435 136.778 41.3719C134.402 43.5873 131.508 44.3729 126.961 44.0366ZM69.6398 43.8172C64.4978 42.8322 62.0664 40.1256 61.3896 34.633C61.2851 33.7848 61.22 28.6854 61.22 21.3507V9.44519H59.2816H57.3433V8.71405V7.98293H63.7237H70.1041V8.7092V9.43548L68.0446 9.48096L65.9851 9.52643L65.9378 20.0873C65.8764 33.8289 66.0316 36.042 67.2287 38.4878C68.4096 40.9007 70.6913 42.1025 74.0913 42.1025C77.9475 42.1025 80.0971 40.6608 81.2566 37.2966C81.9983 35.1446 82.0553 34.0076 82.0563 21.3464L82.0573 9.44519H80.1189H78.1806V8.71405V7.98293H82.8649H87.5493V8.71405V9.44519H85.7788H84.0084L83.9579 22.4025C83.908 35.2233 83.9037 35.3735 83.5478 36.6596C82.4966 40.4592 80.4184 42.5879 76.8076 43.5636C75.1209 44.0194 71.3854 44.1515 69.6398 43.8172ZM89.6799 42.8823L89.7299 42.1838L91.6683 42.158L93.6067 42.1322L93.6478 25.7937L93.689 9.45521L91.7095 9.40958L89.7299 9.36396L89.6803 8.67344L89.6306 7.98293H97.5643C102.582 7.98293 105.925 8.04933 106.66 8.16358C109.465 8.59982 111.38 9.83852 112.411 11.8823C113.299 13.6446 113.573 15.8519 113.158 17.9136C112.713 20.1252 111.796 21.4884 109.958 22.6706C108.715 23.4696 107.915 23.8004 106.368 24.1543C105.657 24.3169 105.015 24.501 104.942 24.5636C104.869 24.6261 105.305 24.7277 105.911 24.7893C112.151 25.4235 114.884 28.173 114.884 33.8163C114.884 36.9233 114.15 38.9089 112.332 40.725C111.217 41.8382 109.864 42.5775 107.957 43.1153C106.738 43.459 106.368 43.4746 98.1602 43.5267L89.6298 43.5808L89.6799 42.8823ZM104.398 41.8602C107.155 41.1378 109 39.2265 109.612 36.4568C109.998 34.7147 109.866 31.5212 109.353 30.1607C108.729 28.5063 107.677 27.1819 106.394 26.4365C105.112 25.6913 104.183 25.5301 101.169 25.5301H98.3718V33.8163V42.1025H100.922C102.662 42.1025 103.767 42.0255 104.398 41.8602ZM104.389 23.6828C107.06 22.815 108.618 20.1475 108.591 16.4875C108.563 12.6704 106.633 9.92367 103.676 9.4903C103.202 9.42081 101.814 9.38619 100.593 9.41337L98.3718 9.46278V16.657C98.3718 20.6138 98.4263 23.9081 98.4929 23.9776C98.7034 24.1971 103.552 23.9547 104.389 23.6828Z" fill="#111111" fill-opacity="0.8"/>
<path d="M23.6237 53.6778C23.1151 53.5301 23.0987 53.498 23.0987 52.6493C23.0987 51.7902 23.0885 51.7712 22.5738 51.6708C21.6133 51.4836 19.9585 50.7233 19.1854 50.1142C16.3381 47.8707 15.3622 44.3619 16.6444 40.9775C17.4641 38.8136 19.726 36.879 22.1723 36.2492C23.3542 35.945 23.2981 35.6047 22.0488 35.5L21.0796 35.4187V34.6063V33.794L22.0892 33.7456L23.0987 33.6972V29.5619C23.0987 27.2874 23.0649 25.4265 23.0235 25.4265C22.9821 25.4265 21.7639 26.3953 20.3163 27.5793C18.8688 28.7634 17.4852 29.8889 17.2417 30.0804C16.9983 30.272 16.8002 30.4914 16.8015 30.5679C16.8028 30.6444 17.0503 30.9994 17.3514 31.3569C17.8828 31.9876 17.8912 32.0198 17.6399 32.4489C17.4975 32.6921 17.1808 32.9613 16.936 33.0471C16.5282 33.1901 16.4375 33.1396 15.8494 32.4425C15.387 31.8944 15.158 31.7307 15.0297 31.8569C14.9005 31.984 14.9935 32.3369 15.3685 33.1429C15.8166 34.1061 15.8951 34.4748 15.9588 35.9172C16.0194 37.2869 15.9729 37.7771 15.6956 38.6931C14.9332 41.211 13.1079 43.0468 10.6039 43.8138C9.69411 44.0925 9.21936 44.1384 7.93868 44.0714C6.15634 43.9781 5.12811 43.6317 3.67663 42.6353C3.1668 42.2853 2.69432 42.0019 2.62669 42.0055C2.55905 42.0092 2.25657 42.2247 1.95451 42.4845C1.43484 42.9315 1.38068 42.9441 0.947683 42.7189C0.502788 42.4875 1.56894e-05 41.7434 0 41.3165C-2.61487e-06 41.2003 0.268568 40.8785 0.596825 40.6013L1.19366 40.0973L0.763165 39.0988C-1.12845 34.7116 0.7982 29.9206 5.10004 28.3141C5.87954 28.023 6.37241 27.96 7.75342 27.9751C9.74973 27.9968 10.7289 28.3031 12.3955 29.4272C13.714 30.3165 14.0405 30.1679 13.1554 29.0814C12.5561 28.3458 12.5466 28.3142 12.7991 27.8916C12.9418 27.6528 13.2546 27.3855 13.4942 27.2975C13.8926 27.1511 13.9871 27.2032 14.5973 27.9056L15.2646 28.6737L18.7374 25.8405C20.6475 24.2822 22.2103 22.931 22.2103 22.8378C22.2103 22.7446 20.6839 21.4296 18.8182 19.9156L15.4261 17.1627L14.9819 17.5881C14.4112 18.1346 14.4211 18.4548 15.0223 18.9019C15.6139 19.3418 15.6178 19.4199 15.0804 20.0623L14.654 20.572L14.1439 20.0747C13.5341 19.4802 13.4677 19.4721 13.0667 19.943C12.412 20.7118 12.4072 20.8144 13.006 21.2246C13.3142 21.4357 13.5668 21.6899 13.5674 21.7896C13.5687 22.0019 12.9494 22.8272 12.7895 22.8263C12.6427 22.8255 9.62393 20.3985 9.56332 20.2325C9.53708 20.1607 10.2821 19.6798 11.219 19.1639C12.1559 18.6479 12.9224 18.1693 12.9224 18.1003C12.9224 18.0313 12.7123 17.8244 12.4556 17.6405L11.9887 17.3062L10.4144 18.203C9.54847 18.6962 8.81341 19.0731 8.78093 19.0404C8.74844 19.0077 8.96823 18.2001 9.26936 17.2457L9.81685 15.5103L9.40394 15.1836C9.17684 15.004 8.9219 14.8801 8.83742 14.9085C8.75294 14.9368 8.4355 15.7578 8.13201 16.733C7.82852 17.7082 7.55144 18.535 7.51627 18.5704C7.45109 18.6359 4.19978 16.0105 4.19978 15.8923C4.19978 15.7369 4.9201 14.8657 5.04858 14.8657C5.12664 14.8657 5.44584 15.0616 5.75791 15.301L6.32532 15.7363L6.79707 15.2286C7.05654 14.9493 7.26884 14.6698 7.26884 14.6074C7.26884 14.545 6.99961 14.2599 6.67056 13.9738L6.07228 13.4536L6.46865 12.9501C6.95448 12.3329 7.02059 12.3263 7.62135 12.8348C7.88531 13.0582 8.15637 13.241 8.22371 13.241C8.37968 13.241 9.20961 12.3098 9.19989 12.1457C9.19587 12.0779 8.58131 11.5472 7.83419 10.9663C6.32238 9.79097 6.20337 9.51222 6.87211 8.71283C7.71139 7.70956 6.91417 7.1885 16.476 14.99C21.6449 19.2073 22.9163 20.2274 23.0035 20.2274C23.0559 20.2274 23.0987 18.363 23.0987 16.0843V11.9412H22.2911H21.4834V12.7535V13.5659H20.7566H20.0297V12.7535V11.9412H19.222H18.4144V12.7535V13.5659H17.6875H16.9606V11.3749V9.18384L17.7279 9.48833C18.1499 9.65579 18.962 9.98373 19.5326 10.2171C20.1031 10.4504 20.6301 10.6414 20.7036 10.6414C20.7772 10.6414 20.8369 10.3672 20.8363 10.0321L20.8353 9.42281L19.0369 8.70852L17.2384 7.99422L19.0379 7.26999L20.8373 6.54574V5.91274C20.8373 5.56458 20.8024 5.27972 20.7598 5.27972C20.7172 5.27972 19.9358 5.58019 19.0234 5.94742C18.111 6.31465 17.2736 6.65148 17.1625 6.69594C17.0069 6.75821 16.9606 6.26939 16.9606 4.56597V2.35518H17.6875H18.4144V3.16756V3.97992H19.222H20.0297V3.16756V2.35518H20.7566H21.4834V3.16756V3.97992H22.2911H23.0987V2.11773V0.255537L23.7212 0.0869509C24.1601 -0.0319299 24.4935 -0.0290889 24.8519 0.0965828L25.3601 0.2748V10.2685C25.3601 18.7197 25.3947 20.2488 25.584 20.1757C25.7825 20.0991 30.1939 16.5403 37.8015 10.3194C39.1805 9.19179 40.3987 8.2133 40.5086 8.145C40.8162 7.95379 41.311 8.17749 41.6492 8.66067C42.3208 9.61993 42.287 9.70843 40.7926 10.9035C40.0339 11.5102 39.4132 12.068 39.4132 12.1429C39.4132 12.3512 40.101 13.241 40.262 13.241C40.3401 13.241 40.6615 13.0434 40.9763 12.8018L41.5487 12.3627L42.0066 12.9237L42.4645 13.4847L41.8281 14.0533L41.1917 14.622L41.6966 15.1764C42.0423 15.556 42.2641 15.6841 42.4 15.5826C43.4926 14.7667 43.4404 14.7802 43.8563 15.2054C44.0669 15.4207 44.2618 15.6811 44.2895 15.7841C44.3448 15.9896 41.2015 18.6289 41.0292 18.5218C40.9705 18.4853 40.6805 17.6478 40.3847 16.6606C40.0889 15.6734 39.7675 14.8681 39.6704 14.8711C39.5734 14.8741 39.3254 15.0178 39.1195 15.1905L38.7449 15.5045L39.3025 17.2973C39.6091 18.2833 39.8248 19.09 39.7819 19.09C39.739 19.09 38.978 18.6803 38.0909 18.1794L36.4779 17.2688L36.0083 17.7213L35.5387 18.1738L36.5472 18.7344C37.1018 19.0427 37.9074 19.4942 38.3373 19.7377L39.1191 20.1805L37.4331 21.565L35.7472 22.9495L35.2953 22.38L34.8435 21.8104L35.4607 21.2892L36.0779 20.768L35.6265 20.1727C35.3782 19.8453 35.1397 19.5775 35.0964 19.5775C35.0531 19.5775 34.7429 19.7963 34.4071 20.0639L33.7965 20.5503L33.3586 19.9728L32.9207 19.3954L33.531 18.8648L34.1413 18.3341L33.6715 17.7419C33.2699 17.2356 33.1614 17.1785 32.9235 17.3481C32.2388 17.8364 26.1851 22.7545 26.1769 22.8291C26.1719 22.8749 26.5858 23.2405 27.0966 23.6415C27.6074 24.0424 29.209 25.3392 30.6558 26.5232C32.1025 27.7073 33.3155 28.676 33.3514 28.676C33.3872 28.676 33.6515 28.347 33.9386 27.9449C34.5562 27.0798 34.8943 27.0302 35.566 27.7059L36.0553 28.198L35.6304 28.7213C35.0791 29.4004 34.8086 29.9477 34.9527 30.0926C35.0158 30.1561 35.1602 30.1375 35.2735 30.0513C36.3475 29.2347 37.6491 28.4869 38.3362 28.2916C42.3243 27.1584 45.9502 28.6786 47.692 32.2142L48.3781 33.607V35.6502C48.3781 37.7609 48.3659 37.8145 47.3956 39.9743C47.3539 40.0671 47.613 40.3596 47.9714 40.6242C48.5124 41.0236 48.6071 41.1743 48.529 41.5115C48.4276 41.9495 47.9081 42.5832 47.4444 42.8346C47.2197 42.9564 47.0131 42.8669 46.5009 42.4259L45.845 41.8612L45.1085 42.4267C43.5992 43.5854 42.0393 44.1137 40.1465 44.1071C37.9069 44.0993 36.284 43.4361 34.8096 41.9261C33.6639 40.7528 33.051 39.6757 32.7164 38.2479C32.2887 36.4228 32.4489 34.8079 33.2356 33.0151C33.5421 32.3166 33.6016 32.0265 33.4665 31.8906C33.3313 31.7546 33.2048 31.8088 32.9758 32.1008C31.9877 33.3606 32.0965 33.2928 31.5338 33.0001C31.253 32.854 30.9433 32.5841 30.8455 32.4004C30.6603 32.0524 30.7003 31.9613 31.4918 30.93L31.8194 30.5031L28.7543 28.0064C27.0684 26.6333 25.6138 25.4845 25.5218 25.4537C25.4087 25.4157 25.3685 26.7292 25.3977 29.5145L25.4409 33.6315L26.4062 33.6813C27.4515 33.7353 27.6166 33.8614 27.6166 34.6063C27.6166 35.3512 27.4515 35.4774 26.4062 35.5314C25.0295 35.6024 25.1292 35.9332 26.6613 36.3777C28.6975 36.9684 30.1476 38.0375 31.3014 39.7986C32.695 41.9259 32.8467 44.9815 31.6787 47.4002C30.8832 49.0476 28.7598 50.8442 27.0044 51.3552C25.318 51.846 25.3601 51.8115 25.3601 52.7029C25.3601 53.454 25.3291 53.5137 24.8515 53.6812C24.2767 53.8827 24.3298 53.8828 23.6237 53.6778ZM23.1289 48.9905C23.1751 48.3273 23.2248 48.2516 23.7045 48.114C24.0268 48.0216 24.4321 48.0216 24.7544 48.114C25.2391 48.2531 25.2856 48.3265 25.3601 49.0718C25.4348 49.8176 25.4716 49.8757 25.8447 49.8365C26.631 49.7538 28.2188 48.8279 28.9824 48.0067C30.168 46.7318 30.5945 45.6394 30.5983 43.8674C30.6 43.0631 30.5062 42.1291 30.3899 41.7917C29.598 39.496 26.7831 38.8489 25.5653 40.6825C24.8397 41.775 25.2407 43.4636 26.3645 44.0481C26.859 44.3054 28.0534 44.3018 28.6311 44.0413C28.8815 43.9284 28.9138 44.0162 28.9138 44.8089C28.9138 45.6668 28.8927 45.7115 28.4051 45.8824C27.2445 46.2894 25.4967 45.8954 24.8074 45.0714C24.5899 44.8113 24.381 44.5985 24.3432 44.5985C24.3055 44.5985 24.0203 44.8397 23.7096 45.1346C22.8093 45.9886 21.4765 46.2664 20.1696 45.8726L19.5451 45.6844V44.7991C19.5451 44.0118 19.5764 43.9291 19.8278 44.0517C19.9832 44.1275 20.5601 44.1902 21.1096 44.1909C21.9976 44.1922 22.1643 44.1388 22.6074 43.7117C23.5993 42.7554 23.5986 41.1367 22.6059 40.2039C21.1102 38.7985 18.6548 39.9612 18.0866 42.3439C17.5018 44.7955 18.4799 47.4709 20.4626 48.843C21.2657 49.3987 22.795 49.9998 22.9674 49.8274C23.0284 49.7664 23.1011 49.3898 23.1289 48.9905ZM10.2691 42.0084C11.9948 41.3983 13.5302 39.9368 13.9012 38.5511C14.2028 37.4244 13.9675 36.5084 13.1705 35.7068C12.5545 35.0872 12.399 35.0125 11.7241 35.0125C10.4255 35.0125 9.45629 35.8061 9.2586 37.0314C9.12304 37.8717 9.70489 38.9666 10.4963 39.3604L11.1229 39.6722L10.4587 40.1857C10.0935 40.4681 9.69714 40.6991 9.57804 40.6991C9.45895 40.6991 9.03985 40.4009 8.64672 40.0364C7.76143 39.2156 7.34851 38.2155 7.48411 37.2205L7.58175 36.5039L6.78327 36.3934C5.55861 36.224 4.35131 35.212 3.87709 33.9574C3.72309 33.55 3.76263 33.4611 4.31727 32.9681C4.65243 32.6702 4.96967 32.4234 5.02224 32.4197C5.07481 32.416 5.20196 32.6954 5.30479 33.0407C5.55654 33.8858 6.57098 34.6063 7.50916 34.6063C8.7819 34.6063 9.85331 33.5227 9.85331 32.2355C9.85331 30.8247 8.66159 29.8122 7.00455 29.8149C4.01282 29.8199 1.42081 33.3267 1.95281 36.6494C2.13451 37.7843 2.48958 38.7494 2.72537 38.7494C2.81193 38.7494 3.10301 38.563 3.37222 38.3352C3.84316 37.9366 3.88054 37.9307 4.35989 38.18C4.6339 38.3226 4.98112 38.6987 5.1315 39.0159L5.40492 39.5926L4.80235 40.1481C4.47093 40.4535 4.19978 40.7314 4.19978 40.7656C4.19978 40.9478 5.96174 41.9258 6.60331 42.0997C7.73597 42.4067 9.24914 42.369 10.2691 42.0084ZM42.7564 41.7664C43.307 41.5167 43.8885 41.1665 44.0487 40.9883C44.3319 40.673 44.3255 40.6521 43.8149 40.223C43.2066 39.7118 43.1547 39.2912 43.6255 38.6891C44.2465 37.895 44.5379 37.8469 45.2485 38.4212L45.8828 38.934L46.2421 38.1512C46.5375 37.5074 46.6013 37.0799 46.6013 35.7437C46.6013 34.2899 46.5533 34.0206 46.1452 33.1847C45.4599 31.781 44.2633 30.5489 43.1946 30.1468C41.2894 29.4298 39.6605 29.8792 38.9513 31.3175C38.4485 32.3371 38.5703 33.0273 39.4001 33.862C40.4593 34.9274 41.8236 34.8938 42.7973 33.7784C43.0682 33.468 43.2899 33.0338 43.2899 32.8135C43.2899 32.2941 43.4133 32.3084 44.1415 32.9122C44.8297 33.4827 44.862 33.656 44.4364 34.491C43.8947 35.5537 42.7632 36.3118 41.6523 36.3563L41.0023 36.3824L41.1049 37.0709C41.2604 38.1136 40.9137 39.0359 40.0311 39.9274C39.6109 40.3518 39.1503 40.6991 39.0076 40.6991C38.8649 40.6991 38.4603 40.4664 38.1085 40.1821L37.4688 39.665L37.916 39.4716C38.7015 39.1321 39.129 38.5144 39.2171 37.5918C39.3193 36.5225 38.941 35.7583 38.0948 35.324C36.8455 34.6829 35.6638 35.0276 34.958 36.239C33.987 37.9056 34.916 40.1685 37.0994 41.4556C38.2444 42.1305 39.0502 42.3258 40.4632 42.2707C41.4567 42.232 41.9868 42.1154 42.7564 41.7664Z" fill="#010101"/>
</svg>
