<svg width="140" height="38" viewBox="0 0 140 38" fill="none" xmlns="http://www.w3.org/2000/svg">
<path d="M19.2504 35.397C17.1444 35.7669 15.0013 35.8777 12.7844 36.173L6.0226 16.3685V37.023C3.91658 37.2447 1.99527 37.5402 0 37.8358V0H5.61641L13.3016 21.4677V0H19.2504V35.397ZM30.8894 13.8559C33.1804 13.8559 36.6905 13.745 38.7965 13.745V19.6567C36.173 19.6567 33.1064 19.6567 30.8894 19.7676V28.5616C34.3628 28.34 37.836 28.0442 41.3459 27.9333V33.6231L24.9774 34.9166V0H41.3459V5.91186H30.8894V13.8559ZM63.3306 5.91199H57.1971V33.1064C55.2018 33.1064 53.2066 33.1064 51.2855 33.1801V5.91199H45.1521V0H63.3309L63.3306 5.91199ZM72.9373 13.4496H81.0292V19.3613H72.9373V32.7739H67.1359V0H83.6526V5.91186H72.9373V13.4496ZM93.2593 27.6009C96.6217 27.6746 100.021 27.9337 103.309 28.1181V33.9562C98.0258 33.6234 92.7421 33.2913 87.3476 33.1801V0H93.2593V27.6009ZM108.298 34.3626C110.182 34.4736 112.177 34.5845 114.098 34.8059V0H108.298V34.3626ZM140 0L132.499 17.9942L140 37.8358C137.783 37.5402 135.566 37.1338 133.349 36.7642L129.1 25.8275L124.777 35.8777C122.634 35.5079 120.565 35.397 118.422 35.1014L126.033 17.7723L119.161 0H125.516L129.395 9.93932L133.534 0H140V0Z" fill="#FF0000"/>
</svg>
