<svg width="183" height="155" viewBox="0 0 183 155" fill="none" xmlns="http://www.w3.org/2000/svg">
<path fill-rule="evenodd" clip-rule="evenodd" d="M140.5 146.73L154.5 154.813L169 146.441L169 130.192L183 122.11L183 105.366L169 97.2835L169 81.5292L183 73.4463L183 56.7032L169 48.6203L169 33.1976L183 25.1147L183 8.37157L168.5 -1.65264e-05L154.5 8.08288L140.5 -1.89743e-05L126.5 8.08288L112.5 -2.14221e-05L98.5 8.08288L84.5 -2.38699e-05L70.5 8.08288L56.5 -2.63178e-05L42.5 8.08287L28.5 -2.87656e-05L14 8.37155L14 24.2887L1.07041e-05 32.3716L9.24041e-06 49.1147L14 57.1976L14 72.9519L6.44987e-06 81.0348L4.98614e-06 97.778L14 105.861L14 121.615L2.1956e-06 129.698L7.31867e-07 146.441L14.5 154.813L28.5 146.73L42.5 154.813L56.5 146.73L70.5 154.813L84.5 146.73L98.5 154.813L112.5 146.73L126.5 154.813L140.5 146.73ZM42 24.2887L28.5 32.0829L15 24.2887L15 8.9489L28.5 1.15468L42 8.9489L42 24.2887ZM14.2846 25.279L1.00001 32.9489L1.00001 48.5374L14.5 56.3316L28 48.5374L28 33.1976L14.2846 25.279ZM29 33.1976L29 48.5374L42.5 56.3316L56 48.5374L56 33.1976L42.5 25.4034L29 33.1976ZM43 24.2887L56.5 32.0829L70 24.2887L70 8.9489L56.5 1.15468L43 8.9489L43 24.2887ZM71 24.2887L71 8.9489L84.5 1.15468L98 8.94891L98 24.2887L84.5 32.0829L71 24.2887ZM70.5 25.4034L57 33.1976L57 48.5374L70.5 56.3316L84 48.5374L84 33.1976L70.5 25.4034ZM85 33.1976L85 48.5374L98.5 56.3316L112 48.5374L112 33.1976L98.5 25.4034L85 33.1976ZM99 24.2887L112.5 32.0829L126 24.2887L126 8.94891L112.5 1.15469L99 8.94891L99 24.2887ZM127 24.2887L127 8.94891L140.5 1.15469L154 8.94891L154 24.2887L140.5 32.0829L127 24.2887ZM126.5 25.4034L113 33.1976L113 48.5374L126.5 56.3316L140 48.5374L140 33.1976L126.5 25.4034ZM141 33.1976L141 48.5374L154.5 56.3316L168 48.5374L168 33.1976L154.5 25.4034L141 33.1976ZM155 24.2887L168.715 32.2072L182 24.5374L182 8.94891L168.5 1.15469L155 8.94891L155 24.2887ZM42 72.869L42 57.2805L28.5 49.4863L15 57.2805L15 72.869L28.5 80.6632L42 72.869ZM43 72.869L56.5 80.6632L70 72.869L70 57.2805L56.5 49.4863L43 57.2805L43 72.869ZM71 72.869L71 57.2805L84.5 49.4863L98 57.2805L98 72.869L84.5 80.6632L71 72.869ZM99 72.869L112.5 80.6632L126 72.869L126 57.2805L112.5 49.4863L99 57.2805L99 72.869ZM127 72.869L127 57.2805L140.5 49.4863L154 57.2805L154 72.869L140.5 80.6632L127 72.869ZM155 72.869L168.5 80.6632L182 72.869L182 57.2805L168.5 49.4863L155 57.2805L155 72.869ZM28 97.2006L28 81.6122L14.5 73.8179L1.00001 81.6122L1.00001 97.2006L14.5 104.995L28 97.2006ZM29 97.2006L42.5 104.995L56 97.2006L56 81.6122L42.5 73.818L29 81.6122L29 97.2006ZM57 97.2006L57 81.6122L70.5 73.818L84 81.6122L84 97.2006L70.5 104.995L57 97.2006ZM85 97.2006L98.5 104.995L112 97.2006L112 81.6122L98.5 73.818L85 81.6122L85 97.2006ZM113 97.2006L113 81.6122L126.5 73.818L140 81.6122L140 97.2006L126.5 104.995L113 97.2006ZM141 97.2006L154.5 104.995L168 97.2006L168 81.6122L154.5 73.818L141 81.6122L141 97.2006ZM42 121.532L42 105.944L28.5 98.1495L15 105.944L15 121.532L28.5 129.326L42 121.532ZM43 121.532L56.5 129.326L70 121.532L70 105.944L56.5 98.1495L43 105.944L43 121.532ZM71 121.532L71 105.944L84.5 98.1495L98 105.944L98 121.532L84.5 129.326L71 121.532ZM99 121.532L112.5 129.326L126 121.532L126 105.944L112.5 98.1495L99 105.944L99 121.532ZM127 121.532L127 105.944L140.5 98.1495L154 105.944L154 121.532L140.5 129.326L127 121.532ZM155 121.532L168.5 129.326L182 121.532L182 105.944L168.5 98.1495L155 105.944L155 121.532ZM28 145.864L28 130.275L14.5 122.481L1 130.275L1 145.864L14.5 153.658L28 145.864ZM29 145.864L42.5 153.658L56 145.864L56 130.275L42.5 122.481L29 130.275L29 145.864ZM57 145.864L57 130.275L70.5 122.481L84 130.275L84 145.864L70.5 153.658L57 145.864ZM85 145.864L98.5 153.658L112 145.864L112 130.275L98.5 122.481L85 130.275L85 145.864ZM113 145.864L113 130.275L126.5 122.481L140 130.275L140 145.864L126.5 153.658L113 145.864ZM141 145.864L154.5 153.658L168 145.864L168 130.275L154.5 122.481L141 130.275L141 145.864Z" fill="url(#paint0_radial_213:1595)" fill-opacity="0.18"/>
<defs>
<radialGradient id="paint0_radial_213:1595" cx="0" cy="0" r="1" gradientUnits="userSpaceOnUse" gradientTransform="translate(182.5 155.235) rotate(-136.624) scale(131.387 71.9963)">
<stop stop-color="#111111"/>
<stop offset="1" stop-color="#111111" stop-opacity="0"/>
</radialGradient>
</defs>
</svg>
