<svg width="63" height="72" viewBox="0 0 63 72" fill="none" xmlns="http://www.w3.org/2000/svg">
<path d="M0.5 18.2887L31.1769 0.57735L61.8538 18.2887V53.7113L31.1769 71.4226L0.5 53.7113V18.2887Z" stroke="white"/>
<path d="M4.42676 20.6447L31.1768 5.28827L57.9268 20.6447V51.3553L31.1768 66.7117L4.42676 51.3553V20.6447Z" stroke="white" stroke-width="0.5"/>
<path d="M32.9768 42.7832C32.3141 42.7832 31.7768 42.2459 31.7768 41.5832C31.7768 40.9205 32.3141 40.3832 32.9768 40.3832C33.6396 40.3832 34.1768 40.9205 34.1768 41.5832C34.1768 42.2459 33.6396 42.7832 32.9768 42.7832Z" fill="white"/>
<path d="M19.1767 42.7832C18.514 42.7832 17.9767 42.2459 17.9767 41.5832C17.9767 40.9205 18.514 40.3832 19.1767 40.3832C19.8395 40.3832 20.3767 40.9205 20.3767 41.5832C20.3767 42.2459 19.8395 42.7832 19.1767 42.7832Z" fill="white"/>
<path fill-rule="evenodd" clip-rule="evenodd" d="M24.508 27L23.2801 31.0165L19.8374 29.9639L20.3636 28.2426L18.0685 27.5409L17.5177 29.3425L12.3537 27.7637L11.3257 31.1261C11.035 32.0768 11.5701 33.0831 12.5207 33.3737L15.7008 34.346L15.9459 34.983H10.1768V32.5827H8.97684V36.1827H10.1767V37.983H7.77676V39.7829H7.17676V40.9829H16.2369C16.1975 41.1769 16.1768 41.3777 16.1768 41.5833C16.1768 43.2401 17.52 44.5833 19.1768 44.5833H32.9768C34.6336 44.5833 35.9768 43.2401 35.9768 41.5833C35.9768 41.1941 35.9027 40.8223 35.7678 40.4811L45.3364 43.4065L46.1769 44.5832H55.1768L53.9769 43.3833V40.3832H52.7768V34.3832H51.5768V40.3832H50.3766V34.3832H49.1766V34.542L44.1566 33.0072L43.4766 28.3832H35.9766V30.5063L24.508 27ZM37.1766 30.8732V29.5832H42.4402L42.8866 32.6189L37.1766 30.8732ZM29.5601 38.5832H17.3767V35.3604L17.1579 34.7915L29.5601 38.5832ZM49.1766 36.6083V40.3832H48.0225L49.1766 36.6083ZM31.6163 30.4281L35.6328 31.656L34.7557 34.5249L30.7392 33.297L31.6163 30.4281ZM40.7968 33.2348L36.7803 32.0069L35.9032 34.8758L39.9197 36.1037L40.7968 33.2348ZM30.4688 30.0772L29.5916 32.9461L26.149 31.8936L27.0261 29.0247L30.4688 30.0772ZM44.2066 40.5514L44.7329 38.8301L19.4865 31.1115L18.9602 32.8328L44.2066 40.5514ZM45.9608 34.8136L41.9444 33.5857L41.0673 36.4546L45.0837 37.6825L45.9608 34.8136ZM32.9768 39.7833H19.1768C18.1827 39.7833 17.3768 40.5892 17.3768 41.5833C17.3768 42.5774 18.1827 43.3833 19.1768 43.3833H32.9768C33.9709 43.3833 34.7768 42.5774 34.7768 41.5833C34.7768 40.5892 33.9709 39.7833 32.9768 39.7833Z" fill="white"/>
</svg>
