<svg width="66" height="50" viewBox="0 0 66 50" fill="none" xmlns="http://www.w3.org/2000/svg">
<path d="M33 3C26.7 3 21 7.83 21 15.3C21 20.07 24.675 25.68 32.01 32.145C32.58 32.64 33.435 32.64 34.005 32.145C41.325 25.68 45 20.07 45 15.3C45 7.83 39.3 3 33 3ZM33 18C31.35 18 30 16.65 30 15C30 13.35 31.35 12 33 12C34.65 12 36 13.35 36 15C36 16.65 34.65 18 33 18Z" fill="#F3BA00"/>
<g filter="url(#filter0_f_213:2058)">
<ellipse cx="33" cy="32" rx="21" ry="6" fill="#F3BA00" fill-opacity="0.08"/>
</g>
<g filter="url(#filter1_f_213:2058)">
<ellipse cx="33" cy="32" rx="19" ry="4" fill="#F3BA00" fill-opacity="0.08"/>
</g>
<g filter="url(#filter2_f_213:2058)">
<ellipse cx="33" cy="32" rx="17" ry="2" fill="#F3BA00" fill-opacity="0.08"/>
</g>
<defs>
<filter id="filter0_f_213:2058" x="0" y="14" width="66" height="36" filterUnits="userSpaceOnUse" color-interpolation-filters="sRGB">
<feFlood flood-opacity="0" result="BackgroundImageFix"/>
<feBlend mode="normal" in="SourceGraphic" in2="BackgroundImageFix" result="shape"/>
<feGaussianBlur stdDeviation="6" result="effect1_foregroundBlur_213:2058"/>
</filter>
<filter id="filter1_f_213:2058" x="6" y="20" width="54" height="24" filterUnits="userSpaceOnUse" color-interpolation-filters="sRGB">
<feFlood flood-opacity="0" result="BackgroundImageFix"/>
<feBlend mode="normal" in="SourceGraphic" in2="BackgroundImageFix" result="shape"/>
<feGaussianBlur stdDeviation="4" result="effect1_foregroundBlur_213:2058"/>
</filter>
<filter id="filter2_f_213:2058" x="12" y="26" width="42" height="12" filterUnits="userSpaceOnUse" color-interpolation-filters="sRGB">
<feFlood flood-opacity="0" result="BackgroundImageFix"/>
<feBlend mode="normal" in="SourceGraphic" in2="BackgroundImageFix" result="shape"/>
<feGaussianBlur stdDeviation="2" result="effect1_foregroundBlur_213:2058"/>
</filter>
</defs>
</svg>
