<svg width="136" height="66" viewBox="0 0 136 66" fill="none" xmlns="http://www.w3.org/2000/svg">
<path fill-rule="evenodd" clip-rule="evenodd" d="M0 65.6688H65.6729V0H0V65.6688ZM136 65.6957H70.3339V0.0278712H136V65.6957ZM32.8356 6.7446C42.1683 6.7446 52.1415 23.4297 52.1415 37.8786C52.1415 49.228 45.4699 58.9098 32.8356 58.9098C20.1918 58.9098 13.5377 49.228 13.5377 37.8786C13.5377 23.4297 23.5015 6.7446 32.8356 6.7446ZM75.1409 25.0787H82.0554L84.314 34.3533H84.3512L86.6125 25.0787H93.5214V40.8433H88.9271V30.7253H88.8788L86.1452 40.8433H82.5197L79.7809 30.7253H79.7408V40.8433H75.1409V25.0787ZM96.1718 29.1161H100.587V40.8433H105.441V29.1161H109.867V25.0787H96.1718V29.1161ZM121.594 30.9453C121.505 30.3774 121.059 28.6291 119.059 28.6291C116.779 28.6291 116.049 30.8399 116.049 32.9645C116.049 35.0858 116.779 37.2905 119.059 37.2905C120.686 37.2905 121.33 36.143 121.615 34.6552H126.387C126.387 37.8358 123.801 41.222 119.185 41.222C114.08 41.222 111.194 37.6222 111.194 32.9645C111.194 27.9915 114.328 24.7053 119.185 24.7053C123.517 24.7228 125.903 26.996 126.314 30.9453H121.594Z" fill="#FF0000"/>
</svg>
